<svg width="54" height="57" viewBox="0 0 54 57" fill="none" xmlns="http://www.w3.org/2000/svg">
<path opacity="0.05" d="M19.5241 50.4624C13.0319 46.0113 7.41855 40.3987 2.96692 33.9074C1.08638 31.9825 0.0232685 29.4049 3.22695e-05 26.7141C-0.00333596 25.379 0.257004 24.0563 0.76614 22.822C1.27528 21.5877 2.02318 20.4661 2.96692 19.5216C7.71665 13.2846 13.2859 7.7165 19.5241 2.96789C21.4489 1.08727 24.0265 0.0238022 26.7176 3.21034e-05C28.0529 -0.00332814 29.3757 0.257129 30.6101 0.766446C31.8445 1.27576 32.9661 2.0239 33.9104 2.96789C40.0613 7.81562 45.6187 13.3719 50.4676 19.5216C52.3489 21.4458 53.4126 24.0233 53.4358 26.7141C53.4391 28.0495 53.1786 29.3724 52.6692 30.6068C52.1599 31.8412 51.4116 32.9629 50.4676 33.9074C45.6236 40.0618 40.0656 45.619 33.9104 50.4624C32.6847 51.6684 31.1811 52.5545 29.5322 53.0424C28.6162 53.3085 27.6667 53.441 26.7129 53.4357C25.5149 53.4086 24.3304 53.177 23.2105 52.7507C21.8447 52.2346 20.5926 51.4573 19.5241 50.4624Z" fill="url(#paint0_linear_1_3428)"/>
<path d="M32.7519 3.91658L31.8189 3.67566C31.2523 3.52933 30.6743 3.87004 30.528 4.43667L28.0188 14.153C27.8725 14.7197 28.2132 15.2976 28.7798 15.4439L29.7128 15.6849C30.2794 15.8312 30.8574 15.4905 31.0037 14.9239L33.5129 5.2075C33.6592 4.64087 33.3185 4.06291 32.7519 3.91658Z" fill="#1778F2" stroke="#050A4E" stroke-width="0.397926" stroke-miterlimit="10"/>
<path d="M11.1852 41.689L9.57764 46.9757L14.5027 53.4227L17.7931 53.9911L20.3194 51.4092L11.1852 41.689Z" fill="white"/>
<path d="M35.5411 34.1899C35.1779 35.7703 34.8555 37.175 33.6356 37.7565C33.2901 37.9289 32.9096 38.0192 32.5235 38.0205C32.1374 38.0218 31.7561 37.934 31.4095 37.7639C29.8178 36.868 30.205 33.9756 30.3295 33.0405C30.5034 31.7416 30.7075 30.2129 32.0104 29.3728C32.9513 28.7662 34.4583 28.5229 35.3423 29.2306C36.4718 30.1334 36.0135 32.1315 35.5411 34.1899Z" fill="white" stroke="#211F20" stroke-width="0.397926" stroke-miterlimit="10"/>
<path d="M13.861 18.9031C12.4819 19.0435 10.7379 21.4288 9.35877 31.8966C9.06829 33.1978 7.92105 38.9876 11.3216 44.1123C12.4558 45.8008 13.9231 47.2397 15.6334 48.3406C17.7008 49.6988 20.09 50.4877 22.5597 50.6275C26.166 50.764 29.6165 48.016 36.5245 42.5286C37.6046 41.6725 38.919 40.5793 38.9031 39.0695C38.8866 37.55 37.5251 35.9429 36.1545 35.8503C34.6077 35.7479 34.1916 37.6307 32.2889 38.717C28.8145 40.7027 23.4277 38.3691 20.4472 35.8571C19.6246 35.1641 15.409 31.6106 16.0735 28.0952C16.3208 26.7878 17.1461 26.0095 17.1785 23.9062C17.2711 22.754 16.983 21.6033 16.3583 20.6307C16.2878 20.5312 15.0604 18.7803 13.861 18.9031Z" fill="white" stroke="#050A4E" stroke-width="0.397926" stroke-miterlimit="10"/>
<path d="M36.7854 19.1001C33.1597 22.9316 30.1839 28.826 31.364 29.7305C33.1263 31.0777 44.8315 21.8288 44.4222 17.2975C44.3999 16.8451 44.2387 16.4106 43.9606 16.0531C43.6825 15.6955 43.3011 15.4324 42.8681 15.2994C40.8358 14.8207 37.8223 18.0047 36.7854 19.1001Z" fill="white" stroke="#050A4E" stroke-width="0.397926" stroke-miterlimit="10"/>
<path d="M37.8021 41.571C39.1621 40.0453 39.3171 37.9639 38.1483 36.9221C36.9795 35.8803 34.9295 36.2726 33.5696 37.7983C32.2096 39.3241 32.0547 41.4055 33.2235 42.4472C34.3922 43.489 36.4422 43.0967 37.8021 41.571Z" fill="white" stroke="#050A4E" stroke-width="0.397926" stroke-miterlimit="10"/>
<path d="M15.5892 50.9211L23.7945 53.0017C26.0416 53.5702 28.5411 51.4299 29.3489 48.2431C30.7388 44.3775 32.1701 39.8747 33.4577 34.8119C34.7652 29.6622 35.669 24.9507 36.3 20.8333C36.6709 19.3828 36.6145 17.856 36.1375 16.4368C35.9562 15.8628 35.6382 15.3414 35.2108 14.9175C34.7834 14.4936 34.2595 14.1798 33.684 14.0032L25.4782 11.9226C23.2316 11.3541 20.7321 13.4944 19.9237 16.6812C18.7908 19.8152 17.6584 23.2891 16.6056 27.0842C15.0536 32.6755 13.8408 38.3556 12.9742 44.0933C12.6561 45.3604 12.6541 46.6862 12.9685 47.9543C13.1122 48.6329 13.4291 49.2628 13.8883 49.7826C14.3476 50.3025 14.9335 50.6947 15.5892 50.9211Z" fill="#1778F2" stroke="#050A4E" stroke-width="0.397926" stroke-miterlimit="10"/>
<path d="M37.2792 37.4096C38.6391 35.8839 38.7941 33.8025 37.6253 32.7607C36.4565 31.7189 34.4066 32.1112 33.0466 33.637C31.6867 35.1627 31.5317 37.2441 32.7005 38.2859C33.8693 39.3277 35.9192 38.9354 37.2792 37.4096Z" fill="white" stroke="#050A4E" stroke-width="0.397926" stroke-miterlimit="10"/>
<path d="M19.6417 52.2588C19.3196 52.4977 19.0157 52.7601 18.7322 53.0438C17.8984 53.8859 17.2494 54.8927 16.8267 55.9999" fill="white"/>
<path d="M19.6417 52.2588C19.3196 52.4977 19.0157 52.7601 18.7322 53.0438C17.8984 53.8859 17.2494 54.8927 16.8267 55.9999" stroke="#050A4E" stroke-width="0.397926" stroke-miterlimit="10" stroke-linecap="round"/>
<path d="M6.8219 47.2413C8.398 46.1092 9.69158 44.6285 10.6017 42.9147L6.8219 47.2413Z" fill="white"/>
<path d="M6.8219 47.2413C8.398 46.1092 9.69158 44.6285 10.6017 42.9147" stroke="#050A4E" stroke-width="0.397926" stroke-miterlimit="10" stroke-linecap="round"/>
<path d="M16.3751 49.8283L23.3774 51.6042C25.2943 52.0902 27.4869 50.0284 28.2492 47.0229C29.5254 43.3659 30.8504 39.1155 32.0647 34.3404C33.2994 29.4834 34.1749 25.0466 34.8036 21.1725C35.1522 19.8193 35.1365 18.3979 34.7581 17.0528C34.6325 16.5375 34.378 16.0626 34.0185 15.6726C33.659 15.2826 33.2064 14.9904 32.7031 14.8233L25.7008 13.0479C23.7834 12.5619 21.5913 14.6232 20.829 17.6286C19.7887 20.5915 18.7421 23.8738 17.7592 27.4523C16.3066 32.7271 15.144 38.0776 14.2768 43.4796C13.9773 44.6648 13.9474 45.902 14.1894 47.1002C14.6953 49.2899 16.1511 49.7618 16.3751 49.8283Z" fill="white" stroke="#050A4E" stroke-width="0.397926" stroke-miterlimit="10"/>
<path d="M36.8329 31.7783C38.1928 30.2525 38.3478 28.1712 37.179 27.1294C36.0102 26.0876 33.9603 26.4799 32.6003 28.0056C31.2404 29.5313 31.0854 31.6127 32.2542 32.6545C33.423 33.6963 35.4729 33.304 36.8329 31.7783Z" fill="white" stroke="#050A4E" stroke-width="0.397926" stroke-miterlimit="10"/>
<path d="M27.3016 21.7196C26.695 21.4638 23.3683 25.6056 24.5802 27.4207C24.8316 27.7418 25.1602 27.9941 25.5354 28.154C25.9105 28.3139 26.32 28.3763 26.7257 28.3354C27.2255 28.2986 27.6903 28.0656 28.0189 27.6873C28.3174 27.2696 28.4424 26.7525 28.3674 26.2446C28.3004 25.3782 27.8689 25.1327 27.5443 24.2942C26.9861 22.8525 27.5915 21.8435 27.3016 21.7196Z" fill="#F40009" stroke="#050A4E" stroke-width="0.397926" stroke-miterlimit="10"/>
<path d="M19.4747 34.874L27.377 36.9148" stroke="#050A4E" stroke-width="0.397926" stroke-miterlimit="10" stroke-linecap="round"/>
<path d="M18.6231 38.1715L26.5254 40.2123" stroke="#050A4E" stroke-width="0.397926" stroke-miterlimit="10" stroke-linecap="round"/>
<path d="M17.7349 41.6112L25.6371 43.652" stroke="#050A4E" stroke-width="0.397926" stroke-miterlimit="10" stroke-linecap="round"/>
<path d="M42.9368 18.5483C43.5121 18.2578 47.0952 21.5851 46.11 24.1193C45.9586 24.5381 45.7009 24.9104 45.362 25.1994C45.0231 25.4885 44.6148 25.6844 44.1773 25.7678C43.6939 25.792 43.2136 25.677 42.7936 25.4363C42.3736 25.1957 42.0316 24.8396 41.808 24.4103C41.5023 23.8147 41.4155 23.1306 41.5629 22.4775C41.6752 22.045 41.8428 21.6287 42.0614 21.2389C42.2888 20.7943 42.3781 20.7272 42.5202 20.4481C43.0517 19.4226 42.6924 18.6722 42.9368 18.5483Z" fill="#F40009" stroke="#050A4E" stroke-width="0.397926" stroke-miterlimit="10" stroke-linecap="round"/>
<defs>
<linearGradient id="paint0_linear_1_3428" x1="26.7179" y1="0" x2="26.7179" y2="53.4358" gradientUnits="userSpaceOnUse">
<stop stop-color="#1778F2"/>
<stop offset="1" stop-color="#F40009"/>
</linearGradient>
</defs>
</svg>
