<svg width="53" height="57" viewBox="0 0 53 57" fill="none" xmlns="http://www.w3.org/2000/svg">
<path opacity="0.05" d="M19.0907 49.3423C12.7426 44.99 7.25388 39.502 2.90106 33.1547C1.06227 31.2725 0.022752 28.7522 3.15532e-05 26.1211C-0.0032619 24.8156 0.251299 23.5223 0.749133 22.3154C1.24697 21.1085 1.97827 20.0118 2.90106 19.0882C7.54536 12.9897 12.991 7.54521 19.0907 2.90201C20.9727 1.06313 23.4931 0.0232739 26.1245 3.13908e-05C27.4302 -0.00325426 28.7237 0.251422 29.9306 0.749433C31.1376 1.24744 32.2343 1.97898 33.1577 2.90201C39.172 7.64213 44.6061 13.0751 49.3473 19.0882C51.1869 20.9697 52.227 23.49 52.2497 26.1211C52.2529 27.4269 51.9982 28.7204 51.5001 29.9274C51.002 31.1344 50.2704 32.2312 49.3473 33.1547C44.6108 39.1725 39.1762 44.6064 33.1577 49.3423C31.9592 50.5215 30.489 51.3879 28.8766 51.865C27.981 52.1252 27.0525 52.2547 26.1199 52.2495C24.9485 52.2231 23.7903 51.9966 22.6953 51.5798C21.3598 51.0751 20.1355 50.3151 19.0907 49.3423Z" fill="url(#paint0_linear_1_3376)"/>
<path d="M15.5974 33.0468L15.369 45.3055L17.8147 49.2726L20.196 37.1929L15.5974 33.0468Z" fill="white"/>
<path d="M18.6279 43.9012L17.6613 50.4124L34.0972 51.2017L31.4786 43.6383L18.6279 43.9012Z" fill="white"/>
<path d="M15.8092 54.9819L17.34 45.1167L35.0649 44.9194C35.414 48.23 35.7631 51.5404 36.1121 54.8507" stroke="#050A4E" stroke-width="0.389093" stroke-miterlimit="10" stroke-linecap="round"/>
<path d="M36.5549 30.3848C38.0979 32.3767 39.228 34.6564 39.8788 37.0906C41.9299 45.0014 38.2385 53.7766 35.6588 53.7488C32.8345 53.7182 30.7562 43.1265 29.7874 37.2251L36.5549 30.3848Z" fill="white" stroke="#050A4E" stroke-width="0.389093" stroke-miterlimit="10"/>
<path d="M15.6855 30.3848C13.9627 32.5813 12.7666 35.1437 12.1892 37.8749C10.5383 46.0019 15.4798 52.3914 16.5804 53.7488" fill="white"/>
<path d="M15.6855 30.3848C13.9627 32.5813 12.7666 35.1437 12.1892 37.8749C10.5383 46.0019 15.4798 52.3914 16.5804 53.7488" stroke="#050A4E" stroke-width="0.389093" stroke-miterlimit="10"/>
<path d="M23.0293 25.4874C23.1879 24.2489 23.3461 23.0103 23.504 21.7715L28.2926 21.5086L28.7312 25.4551C27.8425 25.8824 26.87 26.107 25.884 26.1127C24.8979 26.1184 23.9228 25.905 23.0293 25.4879V25.4874Z" fill="white" stroke="#050A4E" stroke-width="0.389093" stroke-miterlimit="10"/>
<path d="M14.8851 55.6294C14.5194 54.2072 14.1722 52.7323 13.8435 51.2049C13.57 49.9246 13.3251 48.6736 13.1087 47.4518C16.764 47.5322 20.5289 47.553 24.4035 47.5141C29.7013 47.4585 34.8034 47.2767 39.6954 47.0038C39.3689 48.6068 39.0217 50.2312 38.6537 51.8769C38.3743 53.1246 38.0885 54.3569 37.7961 55.5738" fill="white"/>
<path d="M14.8851 55.6294C14.5194 54.2072 14.1722 52.7323 13.8435 51.2049C13.57 49.9246 13.3251 48.6736 13.1087 47.4518C16.764 47.5322 20.5289 47.553 24.4035 47.5141C29.7013 47.4585 34.8034 47.2767 39.6954 47.0038C39.3689 48.6068 39.0217 50.2312 38.6537 51.8769C38.3743 53.1246 38.0885 54.3569 37.7961 55.5738" stroke="#050A4E" stroke-width="0.389093" stroke-miterlimit="10" stroke-linecap="round"/>
<path d="M15.7285 52.4147C14.5523 51.4374 13.6495 50.1719 13.1082 48.7417C11.877 45.2065 13.579 41.5156 13.843 40.8998C14.2788 39.8887 14.8141 39.0199 16.0486 36.2229C16.3649 35.5053 16.6173 34.9111 16.7835 34.5147C15.7035 34.7935 14.5781 34.8503 13.4756 34.6815C12.4534 34.522 11.2328 34.3313 10.7192 33.5615C10.548 33.3052 10.1111 32.4692 12.1894 29.0241C13.8147 26.3299 14.619 24.9719 16.2621 23.8447C18.1815 22.5571 20.4185 21.8232 22.7277 21.7236C23.0974 22.1857 23.5664 22.5588 24.0998 22.8151C24.6332 23.0715 25.2175 23.2046 25.8093 23.2046C26.4012 23.2046 26.9854 23.0715 27.5188 22.8151C28.0523 22.5588 28.5212 22.1857 28.8909 21.7236C29.5485 21.8081 34.6868 22.5201 37.4716 25.4722C37.9196 25.948 39.5721 28.5205 39.5721 28.5205C39.5721 28.5205 42.8672 32.7794 41.6554 34.3452C41.3514 34.7376 40.8111 34.901 40.0624 35.1295C39.3269 35.3424 38.5585 35.4178 37.7956 35.3518C36.9908 35.2868 36.2058 35.0682 35.4833 34.7076C36.4579 36.5177 37.2925 38.3997 37.9796 40.3372C39.3815 44.2921 40.0268 46.2548 39.3275 48.5149C38.6623 50.4513 37.4155 52.1351 35.7573 53.3363C32.4495 55.9321 28.7109 55.9732 26.6631 55.996C24.9645 56.0172 19.6845 56.0755 15.7285 52.4147Z" fill="white" stroke="#050A4E" stroke-width="0.389093" stroke-miterlimit="10"/>
<path d="M32.1291 35.6784C32.2575 35.6862 34.547 35.8057 35.2974 34.5439C35.5368 34.0477 35.6017 33.4852 35.4814 32.9475C35.3693 31.9747 35.0053 31.048 34.4253 30.2589" fill="white"/>
<path d="M32.1291 35.6784C32.2575 35.6862 34.547 35.8057 35.2974 34.5439C35.5368 34.0477 35.6017 33.4852 35.4814 32.9475C35.3693 31.9747 35.0053 31.048 34.4253 30.2589" stroke="#050A4E" stroke-width="0.389093" stroke-miterlimit="10" stroke-linecap="round"/>
<path d="M21.2865 35.6336C20.3577 35.8705 19.3781 35.8122 18.4839 35.4668C17.7548 35.2286 17.1353 34.7367 16.738 34.0806C16.454 33.5247 16.5029 32.9944 16.6002 31.9378C16.6506 31.3991 16.7435 30.8653 16.8781 30.3414" fill="white"/>
<path d="M21.2865 35.6336C20.3577 35.8705 19.3781 35.8122 18.4839 35.4668C17.7548 35.2286 17.1353 34.7367 16.738 34.0806C16.454 33.5247 16.5029 32.9944 16.6002 31.9378C16.6506 31.3991 16.7435 30.8653 16.8781 30.3414" stroke="#050A4E" stroke-width="0.389093" stroke-miterlimit="10" stroke-linecap="round"/>
<path d="M13.5983 49.8899C21.7652 52.7457 30.6657 52.7064 38.8071 49.7787L13.5983 49.8899Z" fill="white"/>
<path d="M13.5983 49.8899C21.7652 52.7457 30.6657 52.7064 38.8071 49.7787" stroke="#050A4E" stroke-width="0.389093" stroke-miterlimit="10" stroke-linecap="round"/>
<path d="M26.7242 53.711C26.9781 53.711 27.1839 53.5229 27.1839 53.2908C27.1839 53.0587 26.9781 52.8706 26.7242 52.8706C26.4703 52.8706 26.2645 53.0587 26.2645 53.2908C26.2645 53.5229 26.4703 53.711 26.7242 53.711Z" fill="#050A4E" stroke="#050A4E" stroke-width="0.389093" stroke-miterlimit="10"/>
<path d="M20.5163 15.0192C20.4051 15.0247 19.2729 15.097 18.9599 15.7746C18.6264 16.4866 19.2273 17.814 20.7664 18.4499C20.4452 17.3361 20.3606 16.1675 20.518 15.0192H20.5163Z" fill="white" stroke="#050A4E" stroke-width="0.389093" stroke-miterlimit="10"/>
<path d="M30.9781 14.954C31.0893 14.9596 32.2216 15.0324 32.5345 15.7094C32.868 16.422 32.2672 17.7488 30.728 18.3847C31.0493 17.271 31.1339 16.1024 30.9764 14.954H30.9781Z" fill="white" stroke="#050A4E" stroke-width="0.389093" stroke-miterlimit="10"/>
<path d="M25.7677 23.4263C28.7854 23.4263 31.2317 20.0645 31.2317 15.9174C31.2317 11.7703 28.7854 8.40845 25.7677 8.40845C22.75 8.40845 20.3037 11.7703 20.3037 15.9174C20.3037 20.0645 22.75 23.4263 25.7677 23.4263Z" fill="white" stroke="#050A4E" stroke-width="0.389093" stroke-miterlimit="10"/>
<path d="M27.918 5.31179C26.3396 4.83234 24.6441 4.91225 23.1177 5.53802C22.6069 5.75424 20.3018 6.72364 19.4335 9.16048C18.4825 11.8324 19.7254 14.8268 20.3829 14.8201C20.9694 14.8151 20.7165 12.4194 22.324 11.4884C23.414 10.858 24.0048 11.6762 25.9642 11.1026C27.4806 10.6579 27.8752 9.95034 28.7534 10.191C29.5694 10.4134 30.0263 11.2471 30.3737 11.8775C31.2714 13.5094 30.9852 14.8034 31.2815 14.8524C31.7456 14.9285 33.5415 11.9547 32.6066 9.16048C31.6755 6.37957 28.6206 5.51134 27.918 5.31179Z" fill="#050A4E" stroke="#050A4E" stroke-width="0.389093" stroke-miterlimit="10"/>
<path d="M21.6538 21.8148C21.8334 22.764 22.3323 23.6233 23.0676 24.2499C23.8029 24.8766 24.7304 25.2329 25.6961 25.2598C26.6618 25.2866 27.6077 24.9824 28.3767 24.3976C29.1457 23.8129 29.6916 22.9827 29.9237 22.0449" stroke="#050A4E" stroke-width="0.389093" stroke-miterlimit="10"/>
<defs>
<linearGradient id="paint0_linear_1_3376" x1="26.1248" y1="0" x2="26.1248" y2="52.2497" gradientUnits="userSpaceOnUse">
<stop stop-color="#1778F2"/>
<stop offset="1" stop-color="#F40009"/>
</linearGradient>
</defs>
</svg>
