<svg width="54" height="57" viewBox="0 0 54 57" fill="none" xmlns="http://www.w3.org/2000/svg">
<path opacity="0.05" d="M19.7302 50.9952C13.1695 46.4971 7.49688 40.8252 2.99824 34.2654C1.09785 32.3201 0.0235142 29.7154 3.26102e-05 26.9962C-0.00337118 25.6469 0.259717 24.3103 0.774228 23.063C1.28874 21.8157 2.04454 20.6822 2.99824 19.7277C7.79812 13.4248 13.4261 7.79797 19.7302 2.99923C21.6753 1.09874 24.2801 0.0240535 26.9996 3.24424e-05C28.3491 -0.00336328 29.6859 0.259844 30.9333 0.774538C32.1807 1.28923 33.3141 2.04527 34.2684 2.99923C40.4842 7.89814 46.1003 13.5131 51.0004 19.7277C52.9016 21.6722 53.9765 24.2769 54 26.9962C54.0033 28.3456 53.7401 29.6825 53.2253 30.9299C52.7106 32.1774 51.9544 33.3109 51.0004 34.2654C46.1052 40.4847 40.4886 46.1007 34.2684 50.9952C33.0298 52.2139 31.5103 53.1093 29.844 53.6025C28.9183 53.8714 27.9588 54.0052 26.9949 53.9998C25.7843 53.9725 24.5873 53.7384 23.4556 53.3077C22.0754 52.7861 20.81 52.0006 19.7302 50.9952Z" fill="url(#paint0_linear_1_3399)"/>
<path d="M8.15619 23.1066C7.95279 23.0518 8.37164 21.963 8.0893 20.1318C8.01583 19.6554 7.94676 19.4646 7.82779 18.964C7.65509 18.2387 7.64576 18.1417 7.62273 17.9975C7.48731 17.1696 7.39521 16.6038 7.66988 16.4262C7.94455 16.2486 8.43304 16.5528 8.46923 16.5759C8.78334 16.8161 9.00288 17.1593 9.08932 17.5452C9.29633 18.138 9.39763 18.7627 9.38864 19.3906C9.39424 19.6381 9.38325 19.8857 9.35575 20.1318C9.18415 21.7332 8.39577 23.1675 8.15619 23.1066Z" fill="white" stroke="#050A4E" stroke-width="0.219299" stroke-miterlimit="10" stroke-linecap="round"/>
<path d="M13.3092 19.259C13.4894 19.53 13.557 19.8605 13.498 20.1805C13.439 20.5005 13.2579 20.785 12.9929 20.9739C12.7451 21.0973 12.5406 20.9926 11.6705 20.7788C11.1892 20.6609 10.6974 20.5874 10.2155 20.4717C9.73357 20.3561 8.80482 20.168 6.95667 19.7925C5.04603 19.4043 4.09097 19.2108 3.83165 19.1784C3.2538 19.1066 2.68802 18.963 2.1151 18.8604C1.37825 18.7289 1.17977 18.6993 1.02626 18.5156C0.850568 18.1988 0.806157 17.8258 0.90252 17.4767C0.998883 17.1275 1.22833 16.8301 1.54162 16.6483C1.8341 16.5739 2.14346 16.6054 2.41499 16.7371C3.23243 16.9816 4.08111 17.1208 4.898 17.3676C4.96708 17.3884 5.74724 17.5682 7.30482 17.9273C10.6288 18.6949 10.8427 18.7382 11.1809 18.7903C11.6058 18.8561 12.023 18.9635 12.4474 19.0331C13.0379 19.1302 13.1749 19.1296 13.3092 19.259Z" fill="white" stroke="#050A4E" stroke-width="0.219299" stroke-miterlimit="10" stroke-linecap="round"/>
<path d="M9.41123 18.4355C9.53473 18.7524 9.55787 19.0996 9.47755 19.4301C9.40621 19.7125 9.26265 19.9715 9.06091 20.1817L12.8438 20.9959C13.0577 20.8932 13.2358 20.7284 13.3547 20.523C13.4736 20.3177 13.5279 20.0812 13.5105 19.8445C13.4687 19.5923 13.3387 19.363 13.1437 19.1976L9.41123 18.4355Z" fill="#F40009" stroke="#050A4E" stroke-width="0.219299" stroke-miterlimit="10" stroke-linecap="round"/>
<path d="M23.6662 22.6931C23.9737 23.2896 24.1294 23.9527 24.1196 24.6237C24.1098 25.2947 23.9348 25.9529 23.6101 26.5402C23.2853 27.1275 22.8209 27.6257 22.2578 27.9908C21.6947 28.3559 21.0503 28.5766 20.3816 28.6333C18.3866 37.2839 17.3674 46.1308 17.3433 55.0085L33.2649 54.7047C32.7356 53.4807 32.4171 52.1759 32.323 50.8456C32.2952 50.2074 32.3055 49.5681 32.3538 48.9311C32.3735 48.2639 32.3856 46.7102 31.5029 41.8209C30.9546 38.7781 30.9546 39.419 30.8346 38.3878C30.396 34.6487 31.328 32.902 30.3483 29.6668C29.9563 28.3713 29.6794 27.6004 29.6794 27.6004C29.2862 26.6604 29.1106 25.6436 29.1659 24.6261C29.2212 23.6086 29.5058 22.6168 29.9985 21.7249L23.6662 22.6931Z" fill="white"/>
<path d="M17.9334 36.9898C16.2843 40.0644 14.071 41.8144 12.3385 41.4553C11.1899 41.2162 10.5392 40.1099 10.1379 39.4268C8.17239 36.0863 9.76559 32.3544 8.97886 28.4311C8.88828 27.8922 8.76453 27.3593 8.60826 26.8357C8.18282 25.5972 7.64225 25.1153 7.60168 23.7529C7.58249 23.1158 7.69433 23.0095 8.04027 22.0155C8.09509 21.8581 8.3237 21.1597 8.73324 19.7435C9.39717 17.4513 9.49256 16.794 9.86153 16.7501C10.1773 16.7123 10.4646 17.1503 10.532 17.2485C11.0134 17.976 10.7393 18.9513 10.4668 19.8729C10.2415 20.6345 9.79467 21.7534 10.0918 22.4031C10.1036 22.4303 10.1176 22.4565 10.1335 22.4815C10.4049 22.8949 11.105 22.6103 11.8215 22.9075C12.1012 23.0076 12.344 23.1902 12.5178 23.4311C12.656 23.6438 12.7969 24.0298 12.389 25.425C12.2629 25.8549 12.1834 26.1284 12.0699 26.4119C11.9975 26.595 11.9339 26.7255 11.9246 26.7458C11.015 28.6997 11.7908 32.7217 11.7908 32.7217C12.0336 33.977 12.3862 35.2085 12.8446 36.4021" fill="white"/>
<path d="M17.9334 36.9898C16.2843 40.0644 14.071 41.8144 12.3385 41.4553C11.1899 41.2162 10.5392 40.1099 10.1379 39.4268C8.17239 36.0863 9.76559 32.3544 8.97886 28.4311C8.88828 27.8922 8.76453 27.3593 8.60826 26.8357C8.18282 25.5972 7.64225 25.1153 7.60168 23.7529C7.58249 23.1158 7.69433 23.0095 8.04027 22.0155C8.09509 21.8581 8.3237 21.1597 8.73324 19.7435C9.39717 17.4513 9.49256 16.794 9.86153 16.7501C10.1773 16.7123 10.4646 17.1503 10.532 17.2485C11.0134 17.976 10.7393 18.9513 10.4668 19.8729C10.2415 20.6345 9.79467 21.7534 10.0918 22.4031C10.1036 22.4303 10.1176 22.4565 10.1335 22.4815C10.4049 22.8949 11.105 22.6103 11.8215 22.9075C12.1012 23.0076 12.344 23.1902 12.5178 23.4311C12.656 23.6438 12.7969 24.0298 12.389 25.425C12.2629 25.8549 12.1834 26.1284 12.0699 26.4119C11.9975 26.595 11.9339 26.7255 11.9246 26.7458C11.015 28.6997 11.7908 32.7217 11.7908 32.7217C12.0336 33.977 12.3862 35.2085 12.8446 36.4021" stroke="#050A4E" stroke-width="0.219299" stroke-miterlimit="10" stroke-linecap="round"/>
<path d="M35.5778 36.8059C36.2513 37.7598 37.0718 38.6008 38.0087 39.2977C38.6907 39.7993 39.5438 40.2972 39.467 40.8476C39.4385 41.0439 39.3026 41.1612 39.0416 41.3958C37.3294 42.9244 38.3256 42.199 37.5224 42.7939C35.5696 44.2396 34.5849 44.9622 34.1781 44.9512C33.5158 44.9337 33.4105 44.5976 32.0207 44.3438C31.5592 44.2593 31.0921 44.2084 30.6232 44.1914C31.3012 46.0247 31.9798 47.858 32.6589 49.6914C33.1572 48.8157 33.8052 48.0341 34.5734 47.3822C36.5504 45.7177 38.0197 46.0899 40.7719 44.5861C42.2927 43.7555 44.4934 42.5537 44.5701 40.8788C44.6102 40.0121 44.0657 39.3437 41.774 37.1414C40.0887 35.5203 38.5229 34.091 37.1249 32.8569L35.5778 36.8059Z" fill="white"/>
<path d="M24.0308 24.0594C24.2225 24.9518 24.0589 25.8838 23.5747 26.6575C22.7754 27.8039 20.2934 29.3522 20.1098 29.5205C20.0615 29.5649 20.0155 29.6104 20.0149 29.6104C19.925 29.7009 19.8652 29.7815 19.147 30.5178C17.7638 31.935 17.6569 31.9679 16.8088 32.8445C15.6964 33.9958 15.334 34.5002 14.7633 35.0282C14.5067 35.2656 14.2819 35.4388 14.1443 35.5452C13.7354 35.862 13.3045 36.1493 12.8548 36.4048" stroke="#050A4E" stroke-width="0.219299" stroke-miterlimit="10" stroke-linecap="round"/>
<path d="M39.5762 40.782C36.9204 38.3813 33.9625 36.3377 30.7773 34.7031" stroke="#050A4E" stroke-width="0.219299" stroke-miterlimit="10" stroke-linecap="round"/>
<path d="M1.33399 15.512C1.48254 15.1957 1.56323 14.8518 1.57087 14.5025C1.57852 14.1531 1.51296 13.806 1.3784 13.4835C1.16403 13.0668 0.895925 12.9676 0.712262 12.5783C0.52202 12.1754 0.438144 11.4983 1.06753 10.336" stroke="#050A4E" stroke-width="0.219299" stroke-miterlimit="10" stroke-linecap="round"/>
<path d="M2.09287 10.3463C2.24141 10.03 2.3221 9.6861 2.32975 9.33674C2.3374 8.98738 2.27183 8.64028 2.13727 8.31778C1.92236 7.90111 1.65481 7.80188 1.4706 7.41262C1.28091 7.00966 1.19647 6.33257 1.82641 5.17029" stroke="#050A4E" stroke-width="0.219299" stroke-miterlimit="10" stroke-linecap="round"/>
<path d="M3.2832 13.8059C2.79471 12.3086 2.99537 11.4172 3.2832 10.8744C3.52767 10.5204 3.70823 10.1262 3.81665 9.70991C3.91266 9.17229 3.85094 8.61837 3.639 8.11505" stroke="#050A4E" stroke-width="0.219299" stroke-miterlimit="10" stroke-linecap="round"/>
<path d="M31.2785 17.0893C30.7933 21.1464 26.9687 25.1365 23.5756 24.4271C20.4824 23.7807 18.8031 19.4479 19.109 16.1167C19.4571 12.3256 22.5421 8.03719 25.9879 8.36614C29.3574 8.68632 31.7313 13.2949 31.2785 17.0893Z" fill="white" stroke="#050A4E" stroke-width="0.219299" stroke-miterlimit="10"/>
<path d="M20.2691 8.93396C19.2274 12.3545 25.4846 17.5173 28.461 16.4806C29.1441 16.2432 29.8371 15.3139 30.4583 15.5826C30.6242 15.6827 30.7625 15.8229 30.8603 15.9902C30.9582 16.1575 31.0126 16.3466 31.0186 16.5404C31.0564 17.0157 30.8042 17.371 30.4111 17.9077C29.1677 19.6073 29.0756 19.7169 29.0444 19.7717V19.7767C28.4753 20.826 28.8103 22.5179 29.4408 22.8611C30.5093 23.4433 33.7494 20.8743 35.1535 17.5135C36.044 15.6128 36.2165 13.4541 35.6392 11.4362C34.4786 7.75523 31.0011 6.33472 30.0904 6.00851C27.7856 5.22901 25.2723 5.34168 23.0465 6.3243C20.9308 7.30841 20.4254 8.4197 20.2691 8.93396Z" fill="#050A4E" stroke="#050A4E" stroke-width="0.219299" stroke-miterlimit="10"/>
<path d="M33.6029 56.0127C33.3836 55.2616 33.1709 54.4868 32.9648 53.6882C32.6493 52.4597 32.3752 51.2697 32.1424 50.118" fill="white"/>
<path d="M33.6029 56.0127C33.3836 55.2616 33.1709 54.4868 32.9648 53.6882C32.6493 52.4597 32.3752 51.2697 32.1424 50.118" stroke="#050A4E" stroke-width="0.219299" stroke-miterlimit="10" stroke-linecap="round"/>
<path d="M18.26 38.5323C18.2586 38.5323 18.2572 38.5329 18.2561 38.5339C18.2551 38.5349 18.2545 38.5363 18.2545 38.5378L18.249 38.5433C17.9241 39.0341 17.5388 39.482 17.1021 39.8766C16.5993 40.3311 16.3482 40.5581 16.0538 40.5603C15.7402 40.5603 15.3625 40.341 14.2309 38.1902C12.9913 35.8327 13.0494 35.3443 13.2282 35.0455C13.4069 34.7467 13.5955 34.7993 14.2764 34.3163C14.7987 33.934 15.2731 33.4902 15.6893 32.9945C17.1147 31.4117 17.2562 30.029 18.2874 29.029C18.9365 28.3996 20.1185 27.7466 22.4541 27.8634C22.646 28.1485 23.7863 29.8212 25.5681 29.8864C26.3407 29.8717 27.0955 29.6522 27.7556 29.2505C28.5932 28.8224 29.3383 28.2337 29.9486 27.518C30.3264 27.734 30.8861 28.0613 31.5506 28.4818C33.7727 29.8886 33.6636 30.1189 34.9235 30.8064C36.5885 31.7148 37.4564 31.6836 37.9476 32.6332C38.1411 33.0241 38.2299 33.4586 38.2052 33.8941C38.2052 33.8941 38.2053 34.0137 38.1998 34.1354C38.151 34.9703 36.8949 38.8832 35.3034 38.7829C35.1197 38.7713 35.0814 38.716 34.1181 38.0537C32.2475 36.767 32.0665 36.7516 31.9306 36.8075C31.4147 37.0197 31.4404 38.2949 31.4744 39.9682C31.4793 40.1875 31.4925 40.6359 31.566 41.4874C31.6674 42.6667 31.799 43.6255 31.8999 44.2834" fill="white"/>
<path d="M18.26 38.5323C18.2586 38.5323 18.2572 38.5329 18.2561 38.5339C18.2551 38.5349 18.2545 38.5363 18.2545 38.5378L18.249 38.5433C17.9241 39.0341 17.5388 39.482 17.1021 39.8766C16.5993 40.3311 16.3482 40.5581 16.0538 40.5603C15.7402 40.5603 15.3625 40.341 14.2309 38.1902C12.9913 35.8327 13.0494 35.3443 13.2282 35.0455C13.4069 34.7467 13.5955 34.7993 14.2764 34.3163C14.7987 33.934 15.2731 33.4902 15.6893 32.9945C17.1147 31.4117 17.2562 30.029 18.2874 29.029C18.9365 28.3996 20.1185 27.7466 22.4541 27.8634C22.646 28.1485 23.7863 29.8212 25.5681 29.8864C26.3407 29.8717 27.0955 29.6522 27.7556 29.2505C28.5932 28.8224 29.3383 28.2337 29.9486 27.518C30.3264 27.734 30.8861 28.0613 31.5506 28.4818C33.7727 29.8886 33.6636 30.1189 34.9235 30.8064C36.5885 31.7148 37.4564 31.6836 37.9476 32.6332C38.1411 33.0241 38.2299 33.4586 38.2052 33.8941C38.2052 33.8941 38.2053 34.0137 38.1998 34.1354C38.151 34.9703 36.8949 38.8832 35.3034 38.7829C35.1197 38.7713 35.0814 38.716 34.1181 38.0537C32.2475 36.767 32.0665 36.7516 31.9306 36.8075C31.4147 37.0197 31.4404 38.2949 31.4744 39.9682C31.4793 40.1875 31.4925 40.6359 31.566 41.4874C31.6674 42.6667 31.799 43.6255 31.8999 44.2834" stroke="#050A4E" stroke-width="0.219299" stroke-miterlimit="10" stroke-linecap="round"/>
<path d="M33.4813 46.7394C33.2674 46.3791 32.9995 46.0537 32.6869 45.7745C32.1493 45.362 31.6875 44.859 31.3223 44.2882C30.9323 43.6646 30.63 42.9903 30.4238 42.2844C30.3065 41.8008 30.3064 41.5283 30.0674 41.3781C29.8337 41.272 29.5688 41.2568 29.3245 41.3353C29.0801 41.4139 28.8737 41.5806 28.7456 41.803C28.6464 42.0678 28.8224 42.2739 29.0998 42.8803C29.5253 43.4938 29.808 44.1948 29.9271 44.9318C30.0104 45.6338 29.9682 46.345 29.8026 47.0322C29.6595 47.9768 29.8404 48.5371 30.8004 51.5492C30.9989 52.1753 31.1721 52.7224 31.3251 53.1989" fill="white"/>
<path d="M33.4813 46.7394C33.2674 46.3791 32.9995 46.0537 32.6869 45.7745C32.1493 45.362 31.6875 44.859 31.3223 44.2882C30.9323 43.6646 30.63 42.9903 30.4238 42.2844C30.3065 41.8008 30.3064 41.5283 30.0674 41.3781C29.8337 41.272 29.5688 41.2568 29.3245 41.3353C29.0801 41.4139 28.8737 41.5806 28.7456 41.803C28.6464 42.0678 28.8224 42.2739 29.0998 42.8803C29.5253 43.4938 29.808 44.1948 29.9271 44.9318C30.0104 45.6338 29.9682 46.345 29.8026 47.0322C29.6595 47.9768 29.8404 48.5371 30.8004 51.5492C30.9989 52.1753 31.1721 52.7224 31.3251 53.1989" stroke="#050A4E" stroke-width="0.219299" stroke-miterlimit="10" stroke-linecap="round"/>
<path d="M31.3251 53.2195C32.3717 56.0704 32.4156 56.3878 32.8295 56.6153C34.1322 57.3335 36.3482 56.4651 36.9414 55.1263C37.1294 54.7008 37.0993 54.3587 35.1437 50.0276C34.6633 48.9037 34.1079 47.8133 33.4814 46.7639" fill="white"/>
<path d="M31.3251 53.2195C32.3717 56.0704 32.4156 56.3878 32.8295 56.6153C34.1322 57.3335 36.3482 56.4651 36.9414 55.1263C37.1294 54.7008 37.0993 54.3587 35.1437 50.0276C34.6633 48.9037 34.1079 47.8133 33.4814 46.7639" stroke="#050A4E" stroke-width="0.219299" stroke-miterlimit="10" stroke-linecap="round"/>
<path d="M31.0178 52.2262C31.5535 52.6033 32.1853 52.8202 32.8396 52.8518C33.821 52.8518 36.1291 52.5963 36.6017 53.3781L36.9482 54.372C36.9482 54.372 37.3002 54.9373 36.5414 55.7273C36.1802 56.0929 35.7476 56.3802 35.2705 56.5714C34.7934 56.7626 34.2821 56.8536 33.7684 56.8386C33.7684 56.8386 32.6445 56.8386 32.3374 56.0892L31.0178 52.2262Z" fill="#F40009" stroke="#050A4E" stroke-width="0.219299" stroke-miterlimit="10" stroke-linecap="round"/>
<path d="M38.2066 33.8936C39.2648 34.842 40.1145 35.5767 40.6738 36.0537C42.2856 37.4298 44.4128 39.1896 44.5225 40.8508C44.5339 40.951 44.5339 41.0522 44.5225 41.1524C44.4128 42.1228 43.5904 42.7204 42.4556 43.5482C39.6266 45.6151 35.8382 46.1634 34.199 47.6436L34.1441 47.6919C33.9083 47.908 33.7051 48.1573 33.5411 48.432C33.1387 49.1025 32.0421 50.4857 30.2697 49.4737C27.9862 48.1688 28.1617 44.7587 29.8179 44.5553C30.0945 44.4721 30.3769 44.4094 30.6628 44.3678C31.3213 44.2507 31.9998 44.3344 32.6102 44.608C33.0826 44.8336 33.6036 44.9387 34.1266 44.9139C35.3547 44.8481 36.2593 43.9983 37.9972 42.4194C38.688 41.7889 39.2143 41.2187 39.5707 40.824" fill="white"/>
<path d="M38.2066 33.8936C39.2648 34.842 40.1145 35.5767 40.6738 36.0537C42.2856 37.4298 44.4128 39.1896 44.5225 40.8508C44.5339 40.951 44.5339 41.0522 44.5225 41.1524C44.4128 42.1228 43.5904 42.7204 42.4556 43.5482C39.6266 45.6151 35.8382 46.1634 34.199 47.6436L34.1441 47.6919C33.9083 47.908 33.7051 48.1573 33.5411 48.432C33.1387 49.1025 32.0421 50.4857 30.2697 49.4737C27.9862 48.1688 28.1617 44.7587 29.8179 44.5553C30.0945 44.4721 30.3769 44.4094 30.6628 44.3678C31.3213 44.2507 31.9998 44.3344 32.6102 44.608C33.0826 44.8336 33.6036 44.9387 34.1266 44.9139C35.3547 44.8481 36.2593 43.9983 37.9972 42.4194C38.688 41.7889 39.2143 41.2187 39.5707 40.824" stroke="#050A4E" stroke-width="0.219299" stroke-miterlimit="10" stroke-linecap="round"/>
<path d="M29.3026 22.7101C29.0547 23.7956 29.0597 24.9235 29.3173 26.0067C29.4395 26.5086 29.6164 26.9957 29.8448 27.459" stroke="#050A4E" stroke-width="0.219299" stroke-miterlimit="10" stroke-linecap="round"/>
<path d="M18.6701 35.4634C18.2354 38.7529 17.8774 42.2667 17.6389 45.9832C17.4108 49.5353 17.3148 52.9153 17.3159 56.1022" fill="white"/>
<path d="M18.6701 35.4634C18.2354 38.7529 17.8774 42.2667 17.6389 45.9832C17.4108 49.5353 17.3148 52.9153 17.3159 56.1022" stroke="#050A4E" stroke-width="0.219299" stroke-miterlimit="10" stroke-linecap="round"/>
<defs>
<linearGradient id="paint0_linear_1_3399" x1="27" y1="0" x2="27" y2="54" gradientUnits="userSpaceOnUse">
<stop stop-color="#1778F2"/>
<stop offset="1" stop-color="#F40009"/>
</linearGradient>
</defs>
</svg>
