<svg width="38" height="56" viewBox="0 0 38 56" fill="none" xmlns="http://www.w3.org/2000/svg">
<path d="M15.8007 31.4285C14.9171 32.942 14.0333 34.4553 13.1496 35.9684L10.8836 39.8509C9.24842 38.5254 7.61313 37.1798 5.97753 35.8141L5.33398 35.2761C6.14335 34.2317 6.95456 33.1358 7.76754 31.9882C9.35815 29.7415 10.7698 27.5448 12.0218 25.4324L15.8007 31.4285Z" fill="white"/>
<path d="M1.94537 38.6528C2.20415 38.2434 2.53489 37.8841 2.9215 37.5924H2.92753C3.06008 37.4538 3.06608 37.4599 3.34926 37.1887C4.21719 36.3603 5.04162 35.4875 5.81943 34.5739C6.09659 34.2485 6.38589 33.9051 6.67509 33.5376C7.42204 32.5905 8.11014 31.5985 8.73561 30.5672C9.55605 29.2259 10.2731 27.824 10.8806 26.3738" stroke="#050A4E" stroke-width="0.421753" stroke-miterlimit="10" stroke-linecap="round"/>
<path d="M12.4842 39.8296C12.7823 40.6865 13.024 41.562 13.2074 42.4505C13.5484 44.1038 13.4954 44.8877 13.9093 46.7795C14.075 47.5369 14.2274 48.0713 14.4003 48.675C14.9595 50.614 15.6475 52.5135 16.4596 54.3608L5.18254 54.0596L1.22052 50.9392L2.25019 44.3876L3.6854 39.5205C5.97853 37.5034 8.81688 36.9201 10.7672 38.0233C11.4999 38.4497 12.0955 39.0763 12.4842 39.8296Z" fill="white"/>
<path d="M16.3135 54.8475C15.3605 52.0119 14.7172 49.0815 14.3951 46.1075C14.0565 42.9058 14.1149 40.0222 12.211 37.7773C11.5897 37.0689 10.864 36.4593 10.0588 35.9698C8.94863 35.2908 7.71335 34.8417 6.42632 34.6491C6.12974 34.6015 5.82645 34.6163 5.53595 34.6927C5.24544 34.7691 4.9741 34.9052 4.73928 35.0926C4.24781 35.4886 3.79349 35.9287 3.38188 36.4072C2.26079 37.7974 1.45702 39.4157 1.02673 41.1489C0.286249 43.8337 -0.101714 48.7736 0.535133 54.9999" fill="white"/>
<path d="M16.3135 54.8475C15.3605 52.0119 14.7172 49.0815 14.3951 46.1075C14.0565 42.9058 14.1149 40.0222 12.211 37.7773C11.5897 37.0689 10.864 36.4593 10.0588 35.9698C8.94863 35.2908 7.71335 34.8417 6.42632 34.6491C6.12974 34.6015 5.82645 34.6163 5.53595 34.6927C5.24544 34.7691 4.9741 34.9052 4.73928 35.0926C4.24781 35.4886 3.79349 35.9287 3.38188 36.4072C2.26079 37.7974 1.45702 39.4157 1.02673 41.1489C0.286249 43.8337 -0.101714 48.7736 0.535133 54.9999" stroke="#050A4E" stroke-width="0.421753" stroke-miterlimit="10" stroke-linecap="round"/>
<path d="M12.1511 37.7061C12.4041 37.2603 12.6874 36.7963 12.9947 36.3264C13.5182 35.5126 14.0834 34.7263 14.6877 33.9706" fill="white"/>
<path d="M12.1511 37.7061C12.4041 37.2603 12.6874 36.7963 12.9947 36.3264C13.5182 35.5126 14.0834 34.7263 14.6877 33.9706" stroke="#050A4E" stroke-width="0.421753" stroke-miterlimit="10" stroke-linecap="round"/>
<path d="M11.7045 19.1824C8.06233 25.0195 10.2965 34.395 15.9124 36.3134C20.2902 37.8088 25.7724 34.4456 28.0336 30.1022C30.934 24.5302 29.1651 16.1319 23.7263 14.0756C19.378 12.4283 14.0868 15.3655 11.7045 19.1824Z" fill="white" stroke="#050A4E" stroke-width="0.474171" stroke-miterlimit="10"/>
<path d="M22.6243 20.6851C22.1773 22.9144 19.2401 24.4405 17.8344 23.7651C16.5565 23.1512 16.9439 20.8129 15.995 20.7388C15.0949 20.6689 13.8717 22.2245 13.7452 23.7453C13.6247 25.169 14.5628 25.6202 14.408 26.7783C14.1869 28.4183 11.998 30.1017 10.6038 29.7016C8.53902 29.1081 7.41466 23.7001 9.10107 19.6838C10.0071 17.6434 11.555 15.9548 13.5091 14.8752C14.3262 14.3782 15.2584 14.1021 16.2143 14.0739C18.4568 14.0739 19.9962 15.7127 20.6222 16.3778C21.576 17.393 22.9846 18.8897 22.6243 20.6851Z" fill="#050A4E" stroke="#050A4E" stroke-width="0.421753" stroke-miterlimit="10"/>
<path d="M2.62946 15.2292C2.91203 13.8206 3.323 13.3729 3.70017 13.2861C4.35388 13.1355 4.91536 14.0664 5.44737 13.841C6.01433 13.6 5.71002 12.4119 6.32156 12.1221C6.86984 11.8624 7.42844 12.6643 8.03155 12.4083C8.60573 12.1613 8.42492 11.2918 9.00694 10.9321C9.32446 10.7363 9.87825 10.6851 10.9176 11.2364" fill="white"/>
<path d="M2.62946 15.2292C2.91203 13.8206 3.323 13.3729 3.70017 13.2861C4.35388 13.1355 4.91536 14.0664 5.44737 13.841C6.01433 13.6 5.71002 12.4119 6.32156 12.1221C6.86984 11.8624 7.42844 12.6643 8.03155 12.4083C8.60573 12.1613 8.42492 11.2918 9.00694 10.9321C9.32446 10.7363 9.87825 10.6851 10.9176 11.2364" stroke="#050A4E" stroke-width="0.421753" stroke-miterlimit="10" stroke-linecap="round"/>
<path d="M26.0685 5.72925C27.5049 5.78468 28.0116 6.11967 28.1568 6.47816C28.4092 7.09934 27.579 7.80367 27.8863 8.2929C28.2128 8.81467 29.3389 8.32604 29.722 8.88396C30.0655 9.38343 29.3605 10.0631 29.7106 10.6174C30.045 11.1452 30.8752 10.8288 31.3223 11.347C31.5633 11.629 31.7043 12.1676 31.3223 13.281" fill="white"/>
<path d="M26.0685 5.72925C27.5049 5.78468 28.0116 6.11967 28.1568 6.47816C28.4092 7.09934 27.579 7.80367 27.8863 8.2929C28.2128 8.81467 29.3389 8.32604 29.722 8.88396C30.0655 9.38343 29.3605 10.0631 29.7106 10.6174C30.045 11.1452 30.8752 10.8288 31.3223 11.347C31.5633 11.629 31.7043 12.1676 31.3223 13.281" stroke="#050A4E" stroke-width="0.421753" stroke-miterlimit="10" stroke-linecap="round"/>
<path d="M35.6127 9.76196C36.7099 10.6904 36.9026 11.2682 36.7966 11.6382C36.6122 12.2834 35.5259 12.325 35.4651 12.9034C35.4006 13.5156 36.5888 13.824 36.5496 14.4995C36.5122 15.102 35.5373 15.2044 35.4729 15.8581C35.4126 16.4799 36.2598 16.742 36.2929 17.4246C36.311 17.797 36.088 18.3067 35.1029 18.9502" fill="white"/>
<path d="M35.6127 9.76196C36.7099 10.6904 36.9026 11.2682 36.7966 11.6382C36.6122 12.2834 35.5259 12.325 35.4651 12.9034C35.4006 13.5156 36.5888 13.824 36.5496 14.4995C36.5122 15.102 35.5373 15.2044 35.4729 15.8581C35.4126 16.4799 36.2598 16.742 36.2929 17.4246C36.311 17.797 36.088 18.3067 35.1029 18.9502" stroke="#050A4E" stroke-width="0.421753" stroke-miterlimit="10" stroke-linecap="round"/>
<path d="M20.0827 4.20899C20.5231 2.84131 20.9829 2.44365 21.3667 2.40148C22.0337 2.32616 22.4856 3.31487 23.0417 3.1516C23.6321 2.97868 23.4633 1.76222 24.1062 1.54351C24.6798 1.3477 25.1432 2.21109 25.7722 2.0225C26.3705 1.84175 26.2897 0.957877 26.9091 0.666867C27.2465 0.509011 27.8032 0.521063 28.7727 1.18683" fill="white"/>
<path d="M20.0827 4.20899C20.5231 2.84131 20.9829 2.44365 21.3667 2.40148C22.0337 2.32616 22.4856 3.31487 23.0417 3.1516C23.6321 2.97868 23.4633 1.76222 24.1062 1.54351C24.6798 1.3477 25.1432 2.21109 25.7722 2.0225C26.3705 1.84175 26.2897 0.957877 26.9091 0.666867C27.2465 0.509011 27.8032 0.521063 28.7727 1.18683" stroke="#050A4E" stroke-width="0.421753" stroke-miterlimit="10" stroke-linecap="round"/>
<path d="M10.5114 4.77334C11.7676 4.07564 12.3751 4.09914 12.6853 4.3299C13.2234 4.72996 12.8787 5.76084 13.3963 6.02173C13.9457 6.29828 14.6549 5.29872 15.2719 5.57407C15.825 5.8229 15.5732 6.77004 16.1618 7.06105C16.7221 7.3388 17.2667 6.63929 17.918 6.84836C18.2729 6.96284 18.6706 7.35145 18.9243 8.50043" fill="white"/>
<path d="M10.5114 4.77334C11.7676 4.07564 12.3751 4.09914 12.6853 4.3299C13.2234 4.72996 12.8787 5.76084 13.3963 6.02173C13.9457 6.29828 14.6549 5.29872 15.2719 5.57407C15.825 5.8229 15.5732 6.77004 16.1618 7.06105C16.7221 7.3388 17.2667 6.63929 17.918 6.84836C18.2729 6.96284 18.6706 7.35145 18.9243 8.50043" stroke="#050A4E" stroke-width="0.421753" stroke-miterlimit="10" stroke-linecap="round"/>
<path d="M4.27106 46.2642C4.29071 48.064 4.41589 49.8611 4.64586 51.6463C4.78805 52.7501 4.96338 53.7961 5.1604 54.7794" stroke="#050A4E" stroke-width="0.421753" stroke-miterlimit="10" stroke-linecap="round"/>
</svg>
