<svg width="48" height="52" viewBox="0 0 48 52" fill="none" xmlns="http://www.w3.org/2000/svg">
<path d="M12.2083 24.3333C12.2083 24.9086 11.742 25.375 11.1667 25.375C10.5914 25.375 10.125 24.9086 10.125 24.3333C10.125 23.758 10.5914 23.2916 11.1667 23.2916C11.742 23.2916 12.2083 23.758 12.2083 24.3333Z" stroke="#2E3742" stroke-width="1.25" stroke-linecap="round" stroke-linejoin="round"/>
<path d="M18.0416 24.3333C18.0416 24.9086 17.5752 25.375 16.9999 25.375C16.4246 25.375 15.9583 24.9086 15.9583 24.3333C15.9583 23.758 16.4246 23.2916 16.9999 23.2916C17.5752 23.2916 18.0416 23.758 18.0416 24.3333Z" stroke="#2E3742" stroke-width="1.25" stroke-linecap="round" stroke-linejoin="round"/>
<path d="M2.83325 8.5L5.09239 9.25305C5.75882 9.47519 6.25985 10.0307 6.41228 10.7164L8.39992 19.6583C8.47612 20.042 8.68484 20.3866 8.98954 20.6319C9.29424 20.8772 9.6755 21.0075 10.0666 21H18.1666C18.5577 21.0075 18.9389 20.8772 19.2436 20.6319C19.5483 20.3866 19.757 20.042 19.8333 19.6583L20.6419 15.9232C20.9117 14.6771 19.9623 13.5 18.6872 13.5H6.99992" stroke="#2E3742" stroke-width="1.25" stroke-linecap="round" stroke-linejoin="round"/>
<path d="M20 15.4667C15.8829 15.4667 12.5333 12.1171 12.5333 7.99999C12.5333 3.88286 15.8829 0.533325 20 0.533325C24.1171 0.533325 27.4667 3.88286 27.4667 7.99999C27.4667 12.1171 24.1171 15.4667 20 15.4667Z" fill="#156DDC"/>
<path d="M20 1.06667C16.1769 1.06667 13.0667 4.17695 13.0667 8C13.0667 11.8231 16.1769 14.9333 20 14.9333C23.8231 14.9333 26.9333 11.8231 26.9333 8C26.9333 4.17695 23.8231 1.06667 20 1.06667ZM20 0C24.4183 0 28 3.58172 28 8C28 12.4183 24.4183 16 20 16C15.5817 16 12 12.4183 12 8C12 3.58172 15.5817 0 20 0Z" fill="white"/>
<path d="M19.13 11.51V5.83L19.5 6.5L18.04 7.21L17.75 5.88L19.7 4.9H20.61V11.51H19.13ZM17.9 12V10.65H21.87V12H17.9Z" fill="white"/>
</svg>
