<svg width="12" height="16" viewBox="0 0 12 16" fill="none" xmlns="http://www.w3.org/2000/svg">
<path fill-rule="evenodd" clip-rule="evenodd" d="M10.0381 10.6676C9.72627 11.2449 9.37486 11.8 8.98642 12.3288C7.59135 14.2362 6.89304 15.19 5.981 15.2C5.03501 15.2092 4.28655 14.2069 2.94627 12.4106C2.54459 11.8695 2.17908 11.3024 1.85213 10.7131C1.31017 9.87193 0.907615 8.94878 0.659993 7.97928C0.486837 7.1673 0.463307 6.33054 0.590551 5.51012C0.744242 4.26734 1.32679 3.11716 2.23773 2.25791C3.14867 1.39867 4.33091 0.884233 5.58054 0.80333C6.71982 0.76441 7.84406 1.0725 8.80432 1.68681C9.84588 2.37383 10.6337 3.38311 11.0474 4.56028C11.4136 5.71691 11.4284 6.95621 11.0898 8.12124C10.8582 9.01441 10.5043 9.8713 10.0381 10.6676ZM2.11678 6.10657C2.11678 8.19214 3.80747 9.88282 5.89303 9.88282C7.9786 9.88282 9.66928 8.19214 9.66928 6.10657C9.66928 4.02101 7.9786 2.33032 5.89303 2.33032C3.80747 2.33032 2.11678 4.02101 2.11678 6.10657Z" fill="#2E3742"/>
<path d="M5.7928 7.33732C5.06579 7.33732 4.47643 6.74796 4.47643 6.02095C4.47643 5.29395 5.06579 4.70459 5.7928 4.70459C6.51981 4.70459 7.10916 5.29395 7.10916 6.02095C7.10916 6.74796 6.51981 7.33732 5.7928 7.33732Z" fill="#2E3742"/>
</svg>
