<svg width="30" height="30" viewBox="0 0 30 30" fill="none" xmlns="http://www.w3.org/2000/svg">
<path d="M26.3625 10.1995V21.2454C26.3626 21.7637 26.2594 22.2769 26.0588 22.7549C25.8583 23.2329 25.5645 23.6662 25.1945 24.0293L17.1445 15.0713L25.5815 7.86328C26.0891 8.53625 26.3632 9.35657 26.3625 10.1995Z" fill="white" stroke="#2D2D2D" stroke-width="0.4" stroke-miterlimit="10"/>
<path d="M12.7129 15.0959L4.52993 23.969C3.818 23.2416 3.42008 22.2637 3.4219 21.2458V10.199C3.4189 9.30831 3.72499 8.44412 4.28792 7.75391L12.7129 15.0959Z" fill="white" stroke="#2D2D2D" stroke-width="0.4" stroke-miterlimit="10"/>
<path d="M25.1943 24.0273C24.4658 24.7469 23.4823 25.1494 22.4583 25.1472H7.32733C6.80518 25.1494 6.28799 25.046 5.80682 24.8433C5.32565 24.6405 4.89045 24.3425 4.52734 23.9673L12.7183 15.0942L13.1364 15.4634C13.6255 15.8991 14.2578 16.1396 14.9128 16.1396C15.5679 16.1396 16.2002 15.8991 16.6893 15.4634L17.1494 15.0703L25.1943 24.0273Z" fill="white" stroke="#2D2D2D" stroke-width="0.4" stroke-miterlimit="10"/>
<path d="M17.143 15.0709L16.75 14.6289" stroke="black" stroke-width="0.4" stroke-miterlimit="10"/>
<path d="M13.1409 14.6289L12.7109 15.0949" stroke="black" stroke-width="0.4" stroke-miterlimit="10"/>
<path d="M25.5781 7.86377L17.1411 15.0728L16.6812 15.4658C16.192 15.9015 15.5597 16.1423 14.9046 16.1423C14.2495 16.1423 13.6173 15.9015 13.1281 15.4658L12.7101 15.0969L4.28516 7.75488C4.64968 7.29947 5.11203 6.93184 5.63794 6.67944C6.16385 6.42705 6.73979 6.29636 7.32312 6.29688H22.4541C23.0609 6.29644 23.6595 6.43788 24.2019 6.70996C24.7443 6.98204 25.2156 7.37711 25.5781 7.86377Z" fill="#C7DCFF" stroke="black" stroke-width="0.4" stroke-miterlimit="10"/>
</svg>
