<svg width="30" height="30" viewBox="0 0 30 30" fill="none" xmlns="http://www.w3.org/2000/svg">
<path d="M17.157 13.0923C18.3958 13.8399 19.32 15.0129 19.757 16.3923C20.1391 17.4999 20.1035 18.709 19.657 19.7923C19.3127 20.4739 18.8151 21.0666 18.2034 21.5238C17.5916 21.9809 16.8823 22.2902 16.131 22.4273C15.3943 22.5348 14.643 22.4796 13.9299 22.2657C13.2167 22.0519 12.559 21.6844 12.0031 21.1893H8.28906C8.98599 22.5506 10.0688 23.6762 11.402 24.4253C12.446 25.0027 13.6101 25.329 14.8021 25.3783C16.8639 25.4382 18.8757 24.7373 20.454 23.4093C21.7488 22.338 22.6437 20.8608 22.994 19.2173C23.2579 17.6882 23.0486 16.1151 22.394 14.7083C21.7347 13.1277 20.6587 11.7556 19.281 10.7383L17.157 13.0923Z" fill="white" stroke="#2D2D2D" stroke-width="0.4" stroke-miterlimit="10"/>
<path d="M19.4049 2.09456C18.9299 2.30256 18.8869 2.76956 18.4139 3.63956C17.7803 4.67582 16.9795 5.59999 16.0439 6.37456C13.2829 9.21256 14.3369 10.9256 11.5079 13.7836C10.4329 14.8716 9.67091 15.2376 9.69591 16.0536C9.83613 16.7422 10.2312 17.3526 10.8021 17.7625C11.3729 18.1725 12.0775 18.3518 12.7749 18.2646C13.4809 18.0476 13.6919 17.3146 14.2009 16.2956C15.8059 13.0796 17.0469 13.6716 19.0649 10.1856C20.2409 8.15455 20.0489 7.55856 21.2979 6.14656C22.0569 5.28756 22.5979 4.97256 22.5979 4.31756C22.5989 3.02956 20.4889 1.61856 19.4049 2.09456Z" fill="#D6EA88" stroke="#2D2D2D" stroke-width="0.4" stroke-miterlimit="10"/>
<path d="M17.7684 3.90148C18.0824 3.85948 18.2894 3.97148 20.1564 5.27448C21.3684 6.12048 21.4974 6.22348 21.5814 6.45348C21.8464 7.17548 21.2105 7.84648 19.9895 9.55348C17.5595 12.9475 16.3435 14.6455 16.0595 15.1535C15.7535 15.7015 15.3955 16.4035 14.7025 16.5625C14.1355 16.6925 13.6325 16.3945 12.7025 15.8215C11.5795 15.1315 10.8104 14.6595 10.7094 13.9105C10.6424 13.4165 10.9025 13.0665 11.5725 12.1345C12.9625 10.2035 13.9914 8.72648 14.1834 8.44548C14.6044 7.83848 14.9405 7.31548 16.0125 5.76348C16.9965 4.34048 17.2764 3.96448 17.7684 3.90148Z" fill="white" stroke="#2D2D2D" stroke-width="0.4" stroke-miterlimit="10"/>
<path d="M17.317 14.2433C18.918 14.2433 20.216 12.9454 20.216 11.3443C20.216 9.74324 18.918 8.44531 17.317 8.44531C15.7159 8.44531 14.418 9.74324 14.418 11.3443C14.418 12.9454 15.7159 14.2433 17.317 14.2433Z" fill="#FFABAF" stroke="#2D2D2D" stroke-width="0.4" stroke-miterlimit="10" stroke-linecap="round"/>
<path d="M5.78421 20.6717C5.70471 20.7219 5.63941 20.7916 5.59445 20.8742C5.5495 20.9568 5.52637 21.0495 5.52737 21.1435C5.52838 21.2375 5.55342 21.3297 5.60013 21.4113C5.64683 21.4929 5.71366 21.5612 5.79422 21.6097L5.82425 21.6307C6.39825 22.0307 7.48423 21.8137 10.4242 21.8147C13.2362 21.8147 14.3033 22.0147 14.8373 21.6307C14.9163 21.5834 14.982 21.5167 15.028 21.4369C15.074 21.3572 15.0988 21.2669 15.1001 21.1748C15.1014 21.0827 15.0792 20.9918 15.0354 20.9108C14.9917 20.8297 14.9279 20.7612 14.8503 20.7117L14.8302 20.6967C14.2682 20.2967 13.1482 20.5277 10.2802 20.5207C7.43924 20.5157 6.32921 20.2787 5.78421 20.6717Z" fill="white" stroke="#2D2D2D" stroke-width="0.4" stroke-miterlimit="10"/>
<path d="M5.1859 27.1463C5.08101 27.2667 5.01693 27.4172 5.00291 27.5762C4.9889 27.7352 5.02567 27.8945 5.1079 28.0313C5.8079 29.1383 9.46486 28.3583 16.2369 28.4373C20.9949 28.4933 24.1079 28.9373 24.7259 27.9773C24.8028 27.8545 24.8397 27.7107 24.8315 27.566C24.8232 27.4213 24.7703 27.2827 24.6799 27.1693C23.8709 26.1213 20.3519 27.1463 14.9319 27.1343C9.49187 27.1243 6.0649 26.0733 5.1859 27.1463Z" fill="white" stroke="#2D2D2D" stroke-width="0.4" stroke-miterlimit="10"/>
<path d="M10.4727 28.507C10.7606 27.2886 11.2911 26.1407 12.0327 25.132C12.8587 24.019 13.9956 22.403 15.4736 22.475C16.7326 22.537 17.6046 23.781 18.4506 24.989C19.1945 26.0554 19.7284 27.2538 20.0236 28.52L10.4727 28.507Z" fill="white" stroke="#2D2D2D" stroke-width="0.4" stroke-miterlimit="10"/>
</svg>
