<svg width="31" height="30" viewBox="0 0 31 30" fill="none" xmlns="http://www.w3.org/2000/svg">
<path d="M20.7817 12.6328L20.9147 13.4718L20.7227 13.7528L17.5938 13.8528L18.3848 12.8588L20.7817 12.6328Z" fill="white"/>
<path d="M17.2149 6.9395L17.1289 4.4925L18.5799 4.0625L19.9199 4.3625L19.7849 6.1695L17.5209 7.5875L17.1659 7.1875L17.2149 6.9395Z" fill="white"/>
<path d="M26.2157 28.2048C27.8924 28.2048 29.2517 26.8455 29.2517 25.1688C29.2517 23.4921 27.8924 22.1328 26.2157 22.1328C24.539 22.1328 23.1797 23.4921 23.1797 25.1688C23.1797 26.8455 24.539 28.2048 26.2157 28.2048Z" fill="white" stroke="#222222" stroke-width="0.4" stroke-miterlimit="10" stroke-linecap="round"/>
<path d="M26.4994 20.4519C27.2928 20.4624 28.0641 20.7146 28.7104 21.1749C29.1864 21.5239 30.0274 22.3249 29.8314 22.7379C29.5544 23.3259 27.6524 22.1439 26.1114 23.0379C24.6804 23.8699 24.6714 25.8469 23.6254 25.8629C23.4357 25.8592 23.2487 25.8172 23.0756 25.7393C22.9026 25.6615 22.747 25.5494 22.6184 25.4099C22.4561 25.2123 22.3522 24.9734 22.3184 24.7199C22.2538 24.2089 22.2962 23.69 22.4428 23.1963C22.5895 22.7026 22.8373 22.2447 23.1704 21.8519C23.5906 21.3911 24.106 21.0272 24.6808 20.7855C25.2556 20.5437 25.8762 20.4299 26.4994 20.4519Z" fill="white" stroke="#2D2D2D" stroke-width="0.4" stroke-miterlimit="10" stroke-linecap="round"/>
<path d="M19.8693 4.76562C20.0603 5.26494 20.0896 5.8117 19.9528 6.32853C19.8161 6.84537 19.5203 7.30613 19.1073 7.64563C18.8289 7.81647 18.5126 7.91583 18.1865 7.93484C17.8604 7.95386 17.5347 7.89195 17.2383 7.75462" fill="white"/>
<path d="M19.8693 4.76562C20.0603 5.26494 20.0896 5.8117 19.9528 6.32853C19.8161 6.84537 19.5203 7.30613 19.1073 7.64563C18.8289 7.81647 18.5126 7.91583 18.1865 7.93484C17.8604 7.95386 17.5347 7.89195 17.2383 7.75462" stroke="#2D2D2D" stroke-width="0.4" stroke-miterlimit="10"/>
<path d="M9.91117 10.2952C10.6752 10.9022 10.5602 12.1772 10.5112 12.8952C10.5204 13.4412 10.4155 13.9832 10.2032 14.4864C9.99087 14.9895 9.67581 15.4428 9.27817 15.8172C8.73917 16.2362 7.85717 16.2832 6.09517 16.3782C5.01837 16.4262 3.94081 16.3019 2.90317 16.0102C2.61138 15.916 2.33632 15.7763 2.08817 15.5962C1.84287 15.4114 1.62765 15.1898 1.45017 14.9392C0.918311 14.2022 0.564708 13.3519 0.417172 12.4552C0.333538 11.9703 0.308687 11.477 0.343167 10.9862C0.346624 10.7795 0.42518 10.5812 0.564167 10.4282C0.701582 10.2892 0.879368 10.1972 1.07217 10.1652C2.44885 9.89135 3.84854 9.74971 5.25217 9.74219C5.88917 9.74819 6.31717 9.75318 6.66817 9.76218C6.91617 9.76818 7.29517 9.78419 7.62117 9.80919C8.86017 9.90519 9.47817 9.95519 9.91117 10.2952Z" fill="white" stroke="#2D2D2D" stroke-width="0.4" stroke-miterlimit="10"/>
<path d="M11.5868 28.2048C13.2635 28.2048 14.6228 26.8455 14.6228 25.1688C14.6228 23.4921 13.2635 22.1328 11.5868 22.1328C9.91004 22.1328 8.55078 23.4921 8.55078 25.1688C8.55078 26.8455 9.91004 28.2048 11.5868 28.2048Z" fill="white" stroke="#222222" stroke-width="0.4" stroke-miterlimit="10" stroke-linecap="round"/>
<path d="M15.6187 16.7775C16.7572 16.7036 17.9005 16.781 19.0187 17.0075C18.5886 17.4972 18.2481 18.0588 18.0127 18.6665C17.5687 19.8734 17.5335 21.1927 17.9127 22.4215L18.6897 22.4735C18.8346 21.5178 19.0847 20.5811 19.4357 19.6805C19.7007 19.0095 19.9077 18.3155 20.1957 17.6535C20.4537 17.0605 20.6537 16.6805 20.5367 16.2275C20.4127 15.8441 20.1474 15.5223 19.7947 15.3275C18.288 14.5473 16.6256 14.115 14.9297 14.0625L15.6187 16.7775Z" fill="#C7DCFF" stroke="#2D2D2D" stroke-width="0.4" stroke-miterlimit="10" stroke-linecap="round"/>
<path d="M22.9681 13.3359C24.0329 14.2225 24.9368 15.2861 25.6401 16.4799C26.3571 17.7039 27.0031 18.8059 26.7921 20.1879C26.6516 20.9457 26.3275 21.6575 25.8481 22.2609C25.2828 23.0176 24.5637 23.6461 23.7381 24.1049C22.364 24.8897 20.8371 25.3699 19.2611 25.5129C15.9463 25.9856 12.5662 25.4311 9.57613 23.9239C8.28313 23.2379 6.67614 22.3589 6.44314 20.8379C6.38448 19.9876 6.59737 19.1405 7.05113 18.4189C7.65661 17.2367 8.57231 16.2415 9.70013 15.5399L13.6861 17.4929C13.7376 18.2435 13.9581 18.9727 14.3311 19.626C14.7042 20.2793 15.2201 20.8398 15.8404 21.2655C16.4606 21.6913 17.1691 21.9713 17.9128 22.0847C18.6565 22.198 19.4162 22.1417 20.1351 21.9199C20.7093 21.7567 21.2445 21.479 21.7085 21.1035C22.1725 20.728 22.5558 20.2625 22.8351 19.7349C23.1542 18.9277 23.2452 18.0484 23.0981 17.1929C22.8745 16.2805 22.7613 15.3444 22.7611 14.4049C22.7937 14.0425 22.8631 13.6843 22.9681 13.3359Z" fill="white" stroke="#2D2D2D" stroke-width="0.4" stroke-miterlimit="10" stroke-linecap="round"/>
<path d="M22.0195 11.627C22.0486 11.2951 22.1702 10.9781 22.3705 10.712C22.6273 10.3794 22.9912 10.1458 23.4005 10.051C23.34 9.96339 23.3133 9.85677 23.3255 9.75098C23.3585 9.52798 23.5965 9.41599 23.7175 9.35899C23.9002 9.27222 24.1041 9.24026 24.3045 9.26698C25.0155 9.38798 25.3345 10.833 25.4105 11.184C25.6108 11.9722 25.5458 12.8044 25.2255 13.552C25.122 13.7926 24.9359 13.9883 24.7009 14.104C24.4659 14.2197 24.1974 14.2477 23.9435 14.183H23.9295L23.4635 13.771L23.4565 13.765L22.9695 13.334C22.9495 13.295 22.9265 13.258 22.9055 13.219" fill="white"/>
<path d="M22.0195 11.627C22.0486 11.2951 22.1702 10.9781 22.3705 10.712C22.6273 10.3794 22.9912 10.1458 23.4005 10.051C23.34 9.96339 23.3133 9.85677 23.3255 9.75098C23.3585 9.52798 23.5965 9.41599 23.7175 9.35899C23.9002 9.27222 24.1041 9.24026 24.3045 9.26698C25.0155 9.38798 25.3345 10.833 25.4105 11.184C25.6108 11.9722 25.5458 12.8044 25.2255 13.552C25.122 13.7926 24.9359 13.9883 24.7009 14.104C24.4659 14.2197 24.1974 14.2477 23.9435 14.183H23.9295L23.4635 13.771L23.4565 13.765L22.9695 13.334C22.9495 13.295 22.9265 13.258 22.9055 13.219" stroke="#2D2D2D" stroke-width="0.4" stroke-miterlimit="10" stroke-linecap="round"/>
<path d="M15.6395 6.83571C15.431 6.46053 15.309 6.0434 15.2827 5.61495C15.2564 5.18649 15.3264 4.75759 15.4875 4.35971C15.6407 3.98551 15.8734 3.64907 16.1695 3.37371C16.5907 2.97461 17.1163 2.70311 17.6855 2.59071C18.052 2.5085 18.4313 2.50156 18.8006 2.57032C19.1698 2.63908 19.5212 2.7821 19.8335 2.99071C20.3605 3.39071 20.9815 4.15471 20.7685 4.53171C20.4315 5.13171 18.4285 3.97071 17.5305 4.81571C16.6675 5.62771 17.5935 7.57271 17.0075 7.83471C16.6335 8.01071 15.9565 7.34671 15.6395 6.83571Z" fill="#D6EA88" stroke="#2D2D2D" stroke-width="0.4" stroke-miterlimit="10" stroke-linecap="round"/>
<path d="M17.2107 9.38822C17.3577 9.2023 17.461 8.98568 17.5129 8.75441C17.5648 8.52314 17.5641 8.28316 17.5107 8.05223C17.4381 7.78642 17.2948 7.54529 17.096 7.35456C16.8971 7.16383 16.6503 7.03065 16.3817 6.96923C15.8832 6.85542 15.3625 6.88735 14.8817 7.06122C14.1223 7.32379 13.4626 7.81449 12.9927 8.46622C12.5201 9.10984 12.108 9.79576 11.7617 10.5152C11.5717 10.9102 11.4377 11.2382 11.3337 11.5072C10.2507 14.3072 9.68067 15.7232 10.2747 16.5512C10.7747 17.2512 11.7747 17.3462 13.1307 17.4722C14.3237 17.5842 15.4847 17.6922 16.0097 17.0342C16.4377 16.4982 15.9837 16.0242 15.9637 13.7402C15.904 12.8858 15.9978 12.0276 16.2407 11.2062C16.4587 10.5496 16.7867 9.9349 17.2107 9.38822Z" fill="white" stroke="#2D2D2D" stroke-width="0.4" stroke-miterlimit="10"/>
<path d="M16.4958 13.8536C16.4369 13.854 16.3781 13.85 16.3198 13.8416H16.3078C16.1897 13.8258 16.0747 13.7921 15.9668 13.7416C14.7568 13.1816 14.6388 11.2976 14.6288 11.0706C14.5937 10.2702 14.803 9.47816 15.2288 8.79956C15.233 8.7932 15.2367 8.78651 15.2398 8.77956C15.5153 8.32308 15.8671 7.9172 16.2798 7.57956C16.444 7.44121 16.6493 7.36105 16.8638 7.35156C16.9096 7.353 16.9551 7.36074 16.9988 7.37457C17.0745 7.4011 17.143 7.44493 17.1988 7.50256C17.4222 7.7538 17.5472 8.07737 17.5508 8.41356C17.5578 8.57381 17.5305 8.73371 17.4708 8.88256C17.316 9.18823 17.1378 9.48144 16.9378 9.75956C16.9335 9.76443 16.9298 9.7698 16.9268 9.77556C16.7719 10.0291 16.642 10.297 16.5388 10.5756C16.3328 11.1216 16.1508 11.6056 16.3748 11.9426C16.4508 12.0546 16.5868 12.2876 17.9878 12.2876C18.8724 12.3386 19.7595 12.3233 20.6418 12.2416C20.6798 12.2416 20.7148 12.2346 20.7488 12.2306C20.8695 12.216 20.9885 12.1892 21.1038 12.1506C21.4194 11.9982 21.7235 11.823 22.0138 11.6266C22.3138 11.4706 22.4668 11.3946 22.6528 11.4266C22.8621 11.4903 23.0378 11.6341 23.1418 11.8266C23.3132 12.0872 23.3799 12.4029 23.3288 12.7106C23.3249 12.8303 23.2803 12.9451 23.2023 13.036C23.1242 13.127 23.0175 13.1885 22.8998 13.2106C22.8441 13.2216 22.7865 13.2178 22.7328 13.1996C22.5418 13.1326 22.5518 12.9076 22.4098 12.7626C22.2678 12.6176 21.9838 12.5626 21.3038 12.8086C21.1638 12.8506 21.0248 12.8886 20.8898 12.9276" fill="white"/>
<path d="M16.4958 13.8536C16.4369 13.854 16.3781 13.85 16.3198 13.8416H16.3078C16.1897 13.8258 16.0747 13.7921 15.9668 13.7416C14.7568 13.1816 14.6388 11.2976 14.6288 11.0706C14.5937 10.2702 14.803 9.47816 15.2288 8.79956C15.233 8.7932 15.2367 8.78651 15.2398 8.77956C15.5153 8.32308 15.8671 7.9172 16.2798 7.57956C16.444 7.44121 16.6493 7.36105 16.8638 7.35156C16.9096 7.353 16.9551 7.36074 16.9988 7.37457C17.0745 7.4011 17.143 7.44493 17.1988 7.50256C17.4222 7.7538 17.5472 8.07737 17.5508 8.41356C17.5578 8.57381 17.5305 8.73371 17.4708 8.88256C17.316 9.18823 17.1378 9.48144 16.9378 9.75956C16.9335 9.76443 16.9298 9.7698 16.9268 9.77556C16.7719 10.0291 16.642 10.297 16.5388 10.5756C16.3328 11.1216 16.1508 11.6056 16.3748 11.9426C16.4508 12.0546 16.5868 12.2876 17.9878 12.2876C18.8724 12.3386 19.7595 12.3233 20.6418 12.2416C20.6798 12.2416 20.7148 12.2346 20.7488 12.2306C20.8695 12.216 20.9885 12.1892 21.1038 12.1506C21.4194 11.9982 21.7235 11.823 22.0138 11.6266C22.3138 11.4706 22.4668 11.3946 22.6528 11.4266C22.8621 11.4903 23.0378 11.6341 23.1418 11.8266C23.3132 12.0872 23.3799 12.4029 23.3288 12.7106C23.3249 12.8303 23.2803 12.9451 23.2023 13.036C23.1242 13.127 23.0175 13.1885 22.8998 13.2106C22.8441 13.2216 22.7865 13.2178 22.7328 13.1996C22.5418 13.1326 22.5518 12.9076 22.4098 12.7626C22.2678 12.6176 21.9838 12.5626 21.3038 12.8086C21.1638 12.8506 21.0248 12.8886 20.8898 12.9276" stroke="#2D2D2D" stroke-width="0.4" stroke-miterlimit="10" stroke-linecap="round"/>
<path d="M17.1917 7.91025C17.1225 7.69059 16.9816 7.50047 16.7917 7.37025C16.5661 7.25276 16.3199 7.18009 16.0667 7.15625C15.4137 7.57825 15.2087 8.02725 14.5547 8.44925L15.8247 9.10525L16.7927 8.47525L17.1917 7.91025Z" fill="white"/>
<path d="M16.0117 13.812C17.1007 13.912 18.0017 13.934 18.6437 13.936C20.1177 13.936 20.8637 13.827 20.9697 13.486C20.9682 13.2634 20.9379 13.0419 20.8797 12.827C20.8307 12.564 20.7797 12.349 20.7517 12.207" stroke="#2D2D2D" stroke-width="0.4" stroke-miterlimit="10"/>
<path d="M23.4297 10.0781C23.8359 10.6769 24.0937 11.3638 24.1818 12.0819C24.27 12.8001 24.186 13.5289 23.9367 14.2081" stroke="#2D2D2D" stroke-width="0.4" stroke-miterlimit="10"/>
<path d="M5.02659 14.5034V14.0684C5.02449 13.9637 4.98143 13.864 4.90664 13.7907C4.83185 13.7174 4.7313 13.6764 4.62659 13.6764H4.19159C4.01999 13.6779 3.85485 13.6111 3.73248 13.4908C3.61012 13.3705 3.54054 13.2065 3.53909 13.0349C3.53763 12.8633 3.6044 12.6982 3.7247 12.5758C3.84501 12.4534 4.00899 12.3839 4.18059 12.3824H4.61559C4.72028 12.3803 4.81998 12.3373 4.89327 12.2625C4.96657 12.1877 5.00761 12.0871 5.00759 11.9824V11.5484C5.00351 11.4615 5.01702 11.3746 5.04731 11.293C5.0776 11.2113 5.12406 11.1367 5.18388 11.0734C5.24371 11.0102 5.31569 10.9597 5.3955 10.9249C5.47531 10.8902 5.56132 10.8719 5.64838 10.8711C5.73543 10.8704 5.82173 10.8872 5.90212 10.9206C5.98252 10.954 6.05535 11.0033 6.11624 11.0655C6.17714 11.1277 6.22485 11.2016 6.25652 11.2827C6.2882 11.3638 6.30319 11.4504 6.30059 11.5374V11.9724C6.30085 12.0245 6.31143 12.076 6.33172 12.124C6.35201 12.1719 6.38162 12.2154 6.41882 12.2519C6.45601 12.2883 6.50007 12.317 6.54843 12.3364C6.5968 12.3557 6.64852 12.3652 6.70059 12.3644H7.13459C7.22154 12.3603 7.30843 12.3737 7.39005 12.404C7.47168 12.4342 7.54636 12.4806 7.60963 12.5404C7.67291 12.6002 7.72347 12.6721 7.75829 12.7519C7.79311 12.8317 7.81146 12.9176 7.81227 13.0047C7.81308 13.0917 7.79632 13.178 7.76299 13.2585C7.72965 13.3389 7.68044 13.4117 7.61829 13.4727C7.55613 13.5336 7.48232 13.5814 7.40127 13.6131C7.32022 13.6449 7.2336 13.6599 7.14659 13.6574H6.71159C6.60689 13.6595 6.5072 13.7026 6.43391 13.7774C6.36061 13.8522 6.31957 13.9527 6.31959 14.0574V14.4914C6.31459 14.6586 6.24501 14.8174 6.12546 14.9345C6.0059 15.0515 5.84567 15.1176 5.67838 15.1191C5.51109 15.1205 5.34975 15.0571 5.22823 14.9421C5.1067 14.8271 5.03443 14.6695 5.02659 14.5024V14.5034Z" fill="#FFABAF" stroke="#2D2D2D" stroke-width="0.4" stroke-miterlimit="10"/>
</svg>
